<?xml version="1.0" encoding="UTF-8" standalone="no"?>
<!DOCTYPE svg PUBLIC "-//W3C//DTD SVG 1.1//EN"
 "http://www.w3.org/Graphics/SVG/1.1/DTD/svg11.dtd">
<!-- Generated by graphviz version 12.1.2 (0)
 -->
<!-- Pages: 1 -->
<svg width="997pt" height="767pt"
 viewBox="0.00 0.00 996.51 766.70" xmlns="http://www.w3.org/2000/svg" xmlns:xlink="http://www.w3.org/1999/xlink">
<g id="graph0" class="graph" transform="scale(1 1) rotate(0) translate(4 762.7)">
<polygon fill="white" stroke="none" points="-4,4 -4,-762.7 992.51,-762.7 992.51,4 -4,4"/>
<!-- k8&#45;worker&#45;1 -->
<g id="node1" class="node">
<title>k8&#45;worker&#45;1</title>
<polygon fill="#deebf7" stroke="#9ecae1" points="585.04,-36 483.54,-36 483.54,0 585.04,0 585.04,-36"/>
<text text-anchor="middle" x="534.29" y="-13.32" font-family="Times,serif" font-size="14.00">k8&#45;worker&#45;1</text>
</g>
<!-- server&#45;deployment&#45;679c8df85c&#45;q2w4s -->
<g id="node2" class="node">
<title>server&#45;deployment&#45;679c8df85c&#45;q2w4s</title>
<ellipse fill="#e5f5e0" stroke="#a1d99b" cx="534.29" cy="-740.7" rx="202.73" ry="18"/>
<text text-anchor="middle" x="534.29" y="-736.03" font-family="Times,serif" font-size="14.00">server&#45;deployment&#45;679c8df85c&#45;q2w4s</text>
</g>
<!-- k8&#45;worker&#45;0 -->
<g id="node3" class="node">
<title>k8&#45;worker&#45;0</title>
<polygon fill="#deebf7" stroke="#9ecae1" points="160.25,-620.68 58.75,-620.68 58.75,-584.68 160.25,-584.68 160.25,-620.68"/>
<text text-anchor="middle" x="109.5" y="-598" font-family="Times,serif" font-size="14.00">k8&#45;worker&#45;0</text>
</g>
<!-- server&#45;deployment&#45;679c8df85c&#45;q2w4s&#45;&gt;k8&#45;worker&#45;0 -->
<g id="edge1" class="edge">
<title>server&#45;deployment&#45;679c8df85c&#45;q2w4s&#45;&gt;k8&#45;worker&#45;0</title>
<path fill="none" stroke="black" d="M479.63,-722.94C400.5,-697.23 254.44,-649.77 171.43,-622.8"/>
<polygon fill="black" stroke="black" points="172.67,-619.52 162.08,-619.76 170.51,-626.18 172.67,-619.52"/>
</g>
<!-- k8&#45;worker&#45;0&#45;&gt;k8&#45;worker&#45;1 -->
<g id="edge6" class="edge">
<title>k8&#45;worker&#45;0&#45;&gt;k8&#45;worker&#45;1</title>
<path fill="none" stroke="black" d="M122.91,-584.21C184.53,-499.41 440.55,-147.03 514.32,-45.49"/>
<polygon fill="black" stroke="black" points="516.94,-47.84 519.99,-37.69 511.28,-43.73 516.94,-47.84"/>
<text text-anchor="middle" x="268.37" y="-318.8" font-family="Times,serif" font-size="14.00">5ms 200mbps</text>
</g>
<!-- k8&#45;manager&#45;0 -->
<g id="node4" class="node">
<title>k8&#45;manager&#45;0</title>
<polygon fill="#deebf7" stroke="#9ecae1" points="166.62,-174.02 52.37,-174.02 52.37,-138.02 166.62,-138.02 166.62,-174.02"/>
<text text-anchor="middle" x="109.5" y="-151.35" font-family="Times,serif" font-size="14.00">k8&#45;manager&#45;0</text>
</g>
<!-- k8&#45;manager&#45;0&#45;&gt;k8&#45;worker&#45;1 -->
<g id="edge2" class="edge">
<title>k8&#45;manager&#45;0&#45;&gt;k8&#45;worker&#45;1</title>
<path fill="none" stroke="black" d="M166.35,-137.55C245.89,-111.71 389.86,-64.93 472.15,-38.19"/>
<polygon fill="black" stroke="black" points="473.22,-41.52 481.65,-35.1 471.06,-34.87 473.22,-41.52"/>
<text text-anchor="middle" x="269" y="-91.82" font-family="Times,serif" font-size="14.00">20ms 50mbps</text>
</g>
<!-- k8&#45;manager&#45;0&#45;&gt;k8&#45;worker&#45;0 -->
<g id="edge3" class="edge">
<title>k8&#45;manager&#45;0&#45;&gt;k8&#45;worker&#45;0</title>
<path fill="none" stroke="black" d="M109.5,-174.37C109.5,-243.37 109.5,-487.74 109.5,-573.04"/>
<polygon fill="black" stroke="black" points="106,-572.92 109.5,-582.92 113,-572.92 106,-572.92"/>
<text text-anchor="middle" x="54.75" y="-377.65" font-family="Times,serif" font-size="14.00">10ms 100mbps</text>
</g>
<!-- client&#45;deployment&#45;77cf5f56bb&#45;vjv59 -->
<g id="node5" class="node">
<title>client&#45;deployment&#45;77cf5f56bb&#45;vjv59</title>
<ellipse fill="#e5f5e0" stroke="#a1d99b" cx="796.83" cy="-379.35" rx="191.68" ry="18"/>
<text text-anchor="middle" x="796.83" y="-374.68" font-family="Times,serif" font-size="14.00">client&#45;deployment&#45;77cf5f56bb&#45;vjv59</text>
</g>
<!-- client&#45;deployment&#45;77cf5f56bb&#45;vjv59&#45;&gt;k8&#45;worker&#45;1 -->
<g id="edge4" class="edge">
<title>client&#45;deployment&#45;77cf5f56bb&#45;vjv59&#45;&gt;k8&#45;worker&#45;1</title>
<path fill="none" stroke="black" d="M783.45,-360.93C740.44,-301.73 605.54,-116.06 554.3,-45.54"/>
<polygon fill="black" stroke="black" points="557.25,-43.64 548.54,-37.6 551.58,-47.75 557.25,-43.64"/>
</g>
<!-- client&#45;deployment&#45;77cf5f56bb&#45;vjv59&#45;&gt;server&#45;deployment&#45;679c8df85c&#45;q2w4s -->
<g id="edge5" class="edge">
<title>client&#45;deployment&#45;77cf5f56bb&#45;vjv59&#45;&gt;server&#45;deployment&#45;679c8df85c&#45;q2w4s</title>
<path fill="none" stroke="green" d="M783.45,-397.77C740.44,-456.97 605.54,-642.65 554.3,-713.16"/>
<polygon fill="green" stroke="green" points="551.58,-710.95 548.54,-721.1 557.25,-715.07 551.58,-710.95"/>
<text text-anchor="middle" x="623.13" y="-559.41" font-family="Times,serif" font-size="14.00">10ms 5mbps</text>
</g>
</g>
</svg>
